<svg width="400" height="103" viewBox="0 0 400 103" fill="none" xmlns="http://www.w3.org/2000/svg">
<path d="M374.739 72.6192H380.189L387.37 90.1897L394.551 72.6192H400L389.611 97.0652H385.129L374.739 72.6192Z" fill="url(#paint0_linear_82_99)"/>
<path d="M360.257 97.8291C355.741 97.8291 352.193 96.7086 349.613 94.4678C347.066 92.1929 345.793 89.0014 345.793 84.8931C345.793 80.8867 346.931 77.7121 349.205 75.3693C351.514 73.0266 354.791 71.8552 359.035 71.8552C361.853 71.8552 364.247 72.3985 366.216 73.485C368.185 74.5375 369.662 76.0144 370.647 77.9158C371.665 79.7832 372.174 81.9222 372.174 84.3329V86.8793H350.682C350.852 89.1881 351.82 90.9197 353.585 92.0741C355.385 93.1945 357.812 93.7547 360.868 93.7547C362.43 93.7547 364.009 93.6189 365.605 93.3473C367.2 93.0417 368.609 92.6513 369.832 92.1759V96.3012C368.745 96.7426 367.302 97.0991 365.503 97.3707C363.737 97.6763 361.989 97.8291 360.257 97.8291ZM367.336 83.2633C367.268 80.9546 366.504 79.172 365.044 77.9158C363.618 76.6256 361.581 75.9805 358.933 75.9805C356.353 75.9805 354.349 76.6426 352.923 77.9667C351.497 79.2909 350.75 81.0564 350.682 83.2633H367.336Z" fill="url(#paint1_linear_82_99)"/>
<path d="M325.006 97.8291C322.562 97.8291 320.355 97.3029 318.385 96.2503C316.45 95.1638 314.922 93.6529 313.802 91.7176C312.715 89.7484 312.172 87.4735 312.172 84.8931C312.172 82.3467 312.715 80.0888 313.802 78.1195C314.922 76.1503 316.45 74.6224 318.385 73.5359C320.355 72.4155 322.562 71.8553 325.006 71.8553C329.42 71.8553 332.764 73.1964 335.039 75.8787V59.4286H340.183V97.0652H335.192V93.5001C333.834 94.9941 332.34 96.0975 330.71 96.8105C329.114 97.4896 327.213 97.8291 325.006 97.8291ZM326.178 93.7548C328.283 93.7548 330.116 93.2115 331.678 92.1251C333.274 91.0046 334.394 89.5107 335.039 87.6433V82.1429C334.462 80.2755 333.359 78.7816 331.729 77.6612C330.133 76.5407 328.283 75.9805 326.178 75.9805C324.514 75.9805 323.003 76.354 321.645 77.101C320.321 77.8479 319.268 78.9005 318.487 80.2586C317.74 81.6167 317.367 83.1615 317.367 84.8931C317.367 86.6247 317.74 88.1696 318.487 89.5277C319.268 90.8858 320.321 91.9383 321.645 92.6853C323.003 93.3983 324.514 93.7548 326.178 93.7548Z" fill="url(#paint2_linear_82_99)"/>
<path d="M305.166 97.0652C304.487 97.0652 303.909 96.8445 303.434 96.4031C302.993 95.9278 302.772 95.3506 302.772 94.6715C302.772 93.9925 302.993 93.4153 303.434 92.9399C303.909 92.4646 304.487 92.2269 305.166 92.2269C305.845 92.2269 306.422 92.4646 306.897 92.9399C307.373 93.4153 307.61 93.9925 307.61 94.6715C307.61 95.3506 307.373 95.9278 306.897 96.4031C306.422 96.8445 305.845 97.0652 305.166 97.0652Z" fill="url(#paint3_linear_82_99)"/>
<path d="M286.251 97.8291C281.735 97.8291 278.187 96.7086 275.607 94.4678C273.06 92.1929 271.787 89.0014 271.787 84.8931C271.787 80.8867 272.924 77.7121 275.199 75.3693C277.508 73.0266 280.784 71.8552 285.028 71.8552C287.847 71.8552 290.24 72.3985 292.209 73.485C294.179 74.5375 295.656 76.0144 296.64 77.9158C297.659 79.7832 298.168 81.9222 298.168 84.3329V86.8793H276.676C276.846 89.1881 277.813 90.9197 279.579 92.0741C281.379 93.1945 283.806 93.7547 286.862 93.7547C288.424 93.7547 290.003 93.6189 291.598 93.3473C293.194 93.0417 294.603 92.6513 295.825 92.1759V96.3012C294.739 96.7426 293.296 97.0991 291.496 97.3707C289.731 97.6763 287.982 97.8291 286.251 97.8291ZM293.33 83.2633C293.262 80.9546 292.498 79.172 291.038 77.9158C289.612 76.6256 287.575 75.9805 284.927 75.9805C282.346 75.9805 280.343 76.6426 278.917 77.9667C277.491 79.2909 276.744 81.0564 276.676 83.2633H293.33Z" fill="url(#paint4_linear_82_99)"/>
<path d="M263.179 97.8292C260.7 97.8292 258.782 97.1162 257.424 95.6901C256.1 94.2641 255.437 92.2439 255.437 89.6296V76.5917H251.72V72.6192H255.437V65.2854H260.632V72.6192H266.642V76.5917H260.632V89.2731C260.632 90.9028 260.938 92.0572 261.549 92.7362C262.194 93.4153 263.348 93.7548 265.012 93.7548C265.997 93.7548 266.981 93.5341 267.966 93.0927V97.1671C266.676 97.6085 265.08 97.8292 263.179 97.8292Z" fill="url(#paint5_linear_82_99)"/>
<path d="M233.415 72.6192H238.406V76.9991C239.425 75.5052 240.851 74.4017 242.684 73.6887C244.551 72.9757 246.707 72.6192 249.152 72.6192V76.6426C246.538 76.6426 244.297 77.067 242.429 77.9158C240.562 78.7646 239.272 80.1058 238.559 81.9392V97.0652H233.415V72.6192Z" fill="url(#paint6_linear_82_99)"/>
<path d="M213.179 97.8291C210.225 97.8291 207.848 97.0821 206.049 95.5882C204.283 94.0603 203.401 92.0062 203.401 89.4258C203.401 86.7096 204.249 84.6215 205.947 83.1615C207.679 81.6676 210.123 80.9206 213.281 80.9206C216.642 80.9206 219.494 81.5997 221.837 82.9578V81.6845C221.837 79.7492 221.243 78.3232 220.054 77.4065C218.9 76.4558 217.067 75.9805 214.554 75.9805C213.06 75.9805 211.6 76.1333 210.174 76.4388C208.782 76.7105 207.526 77.1009 206.405 77.6102V73.434C207.424 72.9587 208.748 72.5852 210.378 72.3136C212.008 72.008 213.586 71.8552 215.114 71.8552C219.155 71.8552 222.142 72.755 224.078 74.5545C226.047 76.32 227.032 78.7816 227.032 81.9392V97.0651H222.193V94.315C221.141 95.4694 219.885 96.3521 218.425 96.9633C216.999 97.5405 215.25 97.8291 213.179 97.8291ZM214.452 93.9075C216.082 93.9075 217.559 93.585 218.883 92.9399C220.207 92.2948 221.192 91.395 221.837 90.2406V86.9302C219.63 85.5042 217.168 84.7912 214.452 84.7912C212.483 84.7912 211.006 85.1817 210.021 85.9626C209.071 86.7096 208.595 87.864 208.595 89.4258C208.595 92.4136 210.548 93.9075 214.452 93.9075Z" fill="url(#paint7_linear_82_99)"/>
<path d="M184.355 97.8291C181.062 97.8291 178.566 96.9463 176.869 95.1808C175.205 93.4153 174.373 91.0555 174.373 88.1017V72.6192H179.517V87.8979C179.517 91.8025 181.469 93.7548 185.374 93.7548C188.803 93.7548 191.485 92.2099 193.421 89.1202V72.6192H198.565V97.0652H193.573V93.602C192.419 95.062 191.044 96.1315 189.448 96.8105C187.886 97.4896 186.189 97.8291 184.355 97.8291Z" fill="url(#paint8_linear_82_99)"/>
<path d="M152.822 97.8291C150.377 97.8291 148.17 97.3029 146.201 96.2503C144.266 95.1638 142.738 93.6529 141.618 91.7176C140.531 89.7484 139.988 87.4735 139.988 84.8931C139.988 82.3467 140.531 80.0888 141.618 78.1195C142.738 76.1503 144.266 74.6224 146.201 73.5359C148.17 72.4155 150.377 71.8553 152.822 71.8553C157.236 71.8553 160.58 73.1964 162.855 75.8787V59.4286H167.999V97.0652H163.008V93.5001C161.65 94.9941 160.156 96.0975 158.526 96.8105C156.93 97.4896 155.029 97.8291 152.822 97.8291ZM153.993 93.7548C156.098 93.7548 157.932 93.2115 159.494 92.1251C161.089 91.0046 162.21 89.5107 162.855 87.6433V82.1429C162.278 80.2755 161.174 78.7816 159.545 77.6612C157.949 76.5407 156.098 75.9805 153.993 75.9805C152.33 75.9805 150.819 76.354 149.461 77.101C148.136 77.8479 147.084 78.9005 146.303 80.2586C145.556 81.6167 145.183 83.1615 145.183 84.8931C145.183 86.6247 145.556 88.1696 146.303 89.5277C147.084 90.8858 148.136 91.9383 149.461 92.6853C150.819 93.3983 152.33 93.7548 153.993 93.7548Z" fill="url(#paint9_linear_82_99)"/>
<path d="M271.715 42.656C268.965 42.656 266.537 42.1467 264.432 41.1281C262.361 40.0756 260.731 38.5816 259.543 36.6463C258.388 34.6771 257.811 32.3683 257.811 29.72C257.811 27.1056 258.388 24.8138 259.543 22.8445C260.697 20.8753 262.327 19.3644 264.432 18.3118C266.537 17.2254 268.965 16.6821 271.715 16.6821C274.465 16.6821 276.893 17.2254 278.998 18.3118C281.103 19.3644 282.732 20.8753 283.887 22.8445C285.075 24.8138 285.669 27.1056 285.669 29.72C285.669 32.3683 285.075 34.6771 283.887 36.6463C282.732 38.5816 281.103 40.0756 278.998 41.1281C276.893 42.1467 274.465 42.656 271.715 42.656ZM271.715 38.5816C274.363 38.5816 276.468 37.7668 278.03 36.137C279.592 34.5073 280.373 32.3683 280.373 29.72C280.373 26.9698 279.592 24.7968 278.03 23.201C276.468 21.6053 274.363 20.8074 271.715 20.8074C269.066 20.8074 266.961 21.6053 265.4 23.201C263.838 24.7968 263.057 26.9698 263.057 29.72C263.057 32.3683 263.838 34.5073 265.4 36.137C266.961 37.7668 269.066 38.5816 271.715 38.5816Z" fill="url(#paint10_linear_82_99)"/>
<path d="M239.234 17.446H244.225V21.8259C245.244 20.332 246.67 19.2285 248.503 18.5155C250.37 17.8025 252.526 17.446 254.971 17.446V21.4694C252.357 21.4694 250.116 21.8938 248.248 22.7426C246.381 23.5915 245.091 24.9326 244.378 26.766V41.892H239.234V17.446Z" fill="url(#paint11_linear_82_99)"/>
<path d="M217.428 42.6559C214.984 42.6559 212.777 42.1296 210.808 41.0771C208.872 39.9906 207.344 38.4797 206.224 36.5444C205.137 34.5752 204.594 32.3003 204.594 29.7199C204.594 27.1735 205.137 24.9156 206.224 22.9463C207.344 20.9771 208.872 19.4492 210.808 18.3627C212.777 17.2423 214.984 16.6821 217.428 16.6821C221.842 16.6821 225.187 18.0232 227.461 20.7055V4.25536H232.605V41.892H227.614V38.3269C226.256 39.8209 224.762 40.9243 223.132 41.6373C221.537 42.3164 219.635 42.6559 217.428 42.6559ZM218.6 38.5816C220.705 38.5816 222.538 38.0383 224.1 36.9519C225.696 35.8314 226.816 34.3375 227.461 32.4701V26.9697C226.884 25.1023 225.781 23.6084 224.151 22.488C222.555 21.3675 220.705 20.8073 218.6 20.8073C216.936 20.8073 215.425 21.1808 214.067 21.9278C212.743 22.6747 211.69 23.7273 210.909 25.0854C210.162 26.4435 209.789 27.9883 209.789 29.7199C209.789 31.4515 210.162 32.9964 210.909 34.3545C211.69 35.7126 212.743 36.7651 214.067 37.5121C215.425 38.2251 216.936 38.5816 218.6 38.5816Z" fill="url(#paint12_linear_82_99)"/>
<path d="M188.073 42.656C183.557 42.656 180.009 41.5355 177.429 39.2946C174.882 37.0198 173.609 33.8283 173.609 29.72C173.609 25.7135 174.746 22.539 177.021 20.1962C179.33 17.8535 182.606 16.6821 186.851 16.6821C189.669 16.6821 192.062 17.2254 194.032 18.3118C196.001 19.3644 197.478 20.8413 198.462 22.7427C199.481 24.6101 199.99 26.7491 199.99 29.1598V31.7062H178.498C178.668 34.015 179.636 35.7466 181.401 36.901C183.201 38.0214 185.628 38.5816 188.684 38.5816C190.246 38.5816 191.825 38.4458 193.42 38.1742C195.016 37.8686 196.425 37.4782 197.648 37.0028V41.1281C196.561 41.5695 195.118 41.926 193.319 42.1976C191.553 42.5032 189.804 42.656 188.073 42.656ZM195.152 28.0902C195.084 25.7815 194.32 23.9989 192.86 22.7427C191.434 21.4525 189.397 20.8074 186.749 20.8074C184.168 20.8074 182.165 21.4695 180.739 22.7936C179.313 24.1178 178.566 25.8833 178.498 28.0902H195.152Z" fill="url(#paint13_linear_82_99)"/>
<path d="M141.006 17.4461H145.997V21.062C148.51 18.1421 151.905 16.6821 156.183 16.6821C158.628 16.6821 160.818 17.2254 162.753 18.3118C164.722 19.3983 166.25 20.9262 167.337 22.8955C168.457 24.8308 169.017 27.0886 169.017 29.669C169.017 32.2155 168.457 34.4734 167.337 36.4426C166.25 38.4119 164.739 39.9397 162.804 41.0262C160.869 42.1127 158.662 42.656 156.183 42.656C154.146 42.656 152.245 42.3164 150.479 41.6374C148.714 40.9583 147.271 39.9567 146.15 38.6326V53.0455H141.006V17.4461ZM155.012 38.5816C156.676 38.5816 158.169 38.2251 159.494 37.5121C160.852 36.7652 161.904 35.7126 162.651 34.3545C163.432 32.9964 163.823 31.4346 163.823 29.669C163.823 27.9035 163.432 26.3586 162.651 25.0345C161.904 23.6764 160.852 22.6408 159.494 21.9278C158.169 21.1809 156.676 20.8074 155.012 20.8074C152.941 20.8074 151.107 21.3506 149.512 22.4371C147.95 23.5236 146.829 25.0175 146.15 26.9189V32.4192C146.727 34.2866 147.831 35.7805 149.461 36.901C151.09 38.0214 152.941 38.5816 155.012 38.5816Z" fill="url(#paint14_linear_82_99)"/>
<path d="M27.5655 3.05176e-05H45.0976V12.0401H33.7968C31.7901 12.0401 31.262 13.6243 31.262 14.6805V39.9224L16.2647 51.3288L31.262 62.8408V86.7098C31.262 89.667 32.1069 90.6175 34.5361 90.6175H45.0976V102.446H27.7767C23.0241 102.446 16.8984 97.5882 16.8984 91.1456V68.1216L3.05176e-05 56.2927V46.0481L16.8984 34.2192V12.7794C16.8984 6.97061 19.4332 0.950567 27.5655 3.05176e-05Z" fill="#0062FF"/>
<path d="M89.4558 102.446H71.9237V90.4063H83.2245C85.2312 90.4063 85.7593 88.8221 85.7593 87.7659V62.524L100.757 51.1176L85.7593 39.6056L85.7593 15.7366C85.7593 12.7794 84.9144 11.8289 82.4852 11.8289H71.9237V0H89.2446C93.9972 0 100.123 4.85825 100.123 11.3008L100.123 34.3248L117.021 46.1537V56.3983L100.123 68.2272V89.667C100.123 95.4758 97.5881 101.496 89.4558 102.446Z" fill="#0062FF"/>
<defs>
<linearGradient id="paint0_linear_82_99" x1="369.614" y1="82.6244" x2="431.629" y2="82.4707" gradientUnits="userSpaceOnUse">
<stop stop-color="white"/>
<stop offset="1" stop-color="#4B5563"/>
</linearGradient>
<linearGradient id="paint1_linear_82_99" x1="340.441" y1="82.4858" x2="405.206" y2="82.328" gradientUnits="userSpaceOnUse">
<stop stop-color="white"/>
<stop offset="1" stop-color="#4B5563"/>
</linearGradient>
<linearGradient id="paint2_linear_82_99" x1="306.489" y1="75.1451" x2="375.255" y2="75.0248" gradientUnits="userSpaceOnUse">
<stop stop-color="white"/>
<stop offset="1" stop-color="#4B5563"/>
</linearGradient>
<linearGradient id="paint3_linear_82_99" x1="301.79" y1="94.2071" x2="313.668" y2="94.1786" gradientUnits="userSpaceOnUse">
<stop stop-color="white"/>
<stop offset="1" stop-color="#4B5563"/>
</linearGradient>
<linearGradient id="paint4_linear_82_99" x1="266.434" y1="82.4858" x2="331.2" y2="82.328" gradientUnits="userSpaceOnUse">
<stop stop-color="white"/>
<stop offset="1" stop-color="#4B5563"/>
</linearGradient>
<linearGradient id="paint5_linear_82_99" x1="248.423" y1="78.6049" x2="288.308" y2="78.5572" gradientUnits="userSpaceOnUse">
<stop stop-color="white"/>
<stop offset="1" stop-color="#4B5563"/>
</linearGradient>
<linearGradient id="paint6_linear_82_99" x1="230.222" y1="82.6244" x2="268.856" y2="82.5648" gradientUnits="userSpaceOnUse">
<stop stop-color="white"/>
<stop offset="1" stop-color="#4B5563"/>
</linearGradient>
<linearGradient id="paint7_linear_82_99" x1="198.606" y1="82.4858" x2="256.62" y2="82.3592" gradientUnits="userSpaceOnUse">
<stop stop-color="white"/>
<stop offset="1" stop-color="#4B5563"/>
</linearGradient>
<linearGradient id="paint8_linear_82_99" x1="169.465" y1="82.9371" x2="228.854" y2="82.8004" gradientUnits="userSpaceOnUse">
<stop stop-color="white"/>
<stop offset="1" stop-color="#4B5563"/>
</linearGradient>
<linearGradient id="paint9_linear_82_99" x1="134.305" y1="75.1451" x2="203.071" y2="75.0248" gradientUnits="userSpaceOnUse">
<stop stop-color="white"/>
<stop offset="1" stop-color="#4B5563"/>
</linearGradient>
<linearGradient id="paint10_linear_82_99" x1="252.159" y1="27.3127" x2="320.55" y2="27.1367" gradientUnits="userSpaceOnUse">
<stop stop-color="white"/>
<stop offset="1" stop-color="#4B5563"/>
</linearGradient>
<linearGradient id="paint11_linear_82_99" x1="236.041" y1="27.4513" x2="274.675" y2="27.3916" gradientUnits="userSpaceOnUse">
<stop stop-color="white"/>
<stop offset="1" stop-color="#4B5563"/>
</linearGradient>
<linearGradient id="paint12_linear_82_99" x1="198.911" y1="19.9719" x2="267.677" y2="19.8516" gradientUnits="userSpaceOnUse">
<stop stop-color="white"/>
<stop offset="1" stop-color="#4B5563"/>
</linearGradient>
<linearGradient id="paint13_linear_82_99" x1="168.257" y1="27.3127" x2="233.022" y2="27.1549" gradientUnits="userSpaceOnUse">
<stop stop-color="white"/>
<stop offset="1" stop-color="#4B5563"/>
</linearGradient>
<linearGradient id="paint14_linear_82_99" x1="135.323" y1="31.5649" x2="204.09" y2="31.4378" gradientUnits="userSpaceOnUse">
<stop stop-color="white"/>
<stop offset="1" stop-color="#4B5563"/>
</linearGradient>
</defs>
</svg>
